<mxfile host="app.diagrams.net" modified="2022-05-31T11:13:38.125Z" agent="5.0 (X11; Linux x86_64) AppleWebKit/537.36 (KHTML, like Gecko) Chrome/102.0.5005.61 Safari/537.36" etag="2XgQNXC_JOvh7aSYBmdy" version="18.1.3" type="github">
  <diagram id="R2lEEEUBdFMjLlhIrx00" name="Page-1">
    <mxGraphModel dx="868" dy="465" grid="1" gridSize="10" guides="1" tooltips="1" connect="1" arrows="1" fold="1" page="1" pageScale="1" pageWidth="1600" pageHeight="900" math="0" shadow="0" extFonts="Permanent Marker^https://fonts.googleapis.com/css?family=Permanent+Marker">
      <root>
        <mxCell id="0" />
        <mxCell id="1" parent="0" />
        <mxCell id="oLxf0NyWazRHh0P2KrIF-15" value="Jemaat" style="swimlane;childLayout=stackLayout;horizontal=1;startSize=30;horizontalStack=0;rounded=1;fontSize=14;fontStyle=0;strokeWidth=2;resizeParent=0;resizeLast=1;shadow=0;dashed=0;align=center;" parent="1" vertex="1">
          <mxGeometry x="290" y="200" width="290" height="160" as="geometry">
            <mxRectangle x="290" y="200" width="70" height="30" as="alternateBounds" />
          </mxGeometry>
        </mxCell>
        <mxCell id="oLxf0NyWazRHh0P2KrIF-16" value="* id_jemaat - varchar(36) - PK&lt;br&gt;* nik - int(36) - NOT NULL&lt;br&gt;* nama_jemaat - varchar(36) - NOT NULL&lt;br&gt;* tempat_lahir - varchar(36) - NOT NULL&lt;br&gt;* tgl_lahir - int(36) - NOT NULL&lt;br&gt;* status_perkawinan - int(2) - NOT NULL&lt;br&gt;* status_dlm_keluarga - int(2) -NOT NULL" style="align=left;strokeColor=none;fillColor=none;spacingLeft=4;fontSize=12;verticalAlign=top;resizable=0;rotatable=0;part=1;labelBorderColor=none;spacingTop=0;spacing=2;spacingRight=0;labelBackgroundColor=none;html=1;" parent="oLxf0NyWazRHh0P2KrIF-15" vertex="1">
          <mxGeometry y="30" width="290" height="130" as="geometry" />
        </mxCell>
        <mxCell id="oLxf0NyWazRHh0P2KrIF-32" value="Lokasi" style="swimlane;childLayout=stackLayout;horizontal=1;startSize=30;horizontalStack=0;rounded=1;fontSize=14;fontStyle=0;strokeWidth=2;resizeParent=0;resizeLast=1;shadow=0;dashed=0;align=center;labelBackgroundColor=none;labelBorderColor=none;sketch=0;fontFamily=Tahoma;html=1;" parent="1" vertex="1">
          <mxGeometry x="675" y="200" width="250" height="90" as="geometry" />
        </mxCell>
        <mxCell id="oLxf0NyWazRHh0P2KrIF-33" value="* id_lokasi - varchar(36) - PK&lt;br&gt;* longitude - varchar(64) - NOT NULL&lt;br&gt;* latitude - varchar(64) - NOT NULL" style="align=left;strokeColor=none;fillColor=none;spacingLeft=4;fontSize=12;verticalAlign=top;resizable=0;rotatable=0;part=1;labelBackgroundColor=none;labelBorderColor=none;sketch=1;fontFamily=Tahoma;html=1;" parent="oLxf0NyWazRHh0P2KrIF-32" vertex="1">
          <mxGeometry y="30" width="250" height="60" as="geometry" />
        </mxCell>
        <mxCell id="oLxf0NyWazRHh0P2KrIF-36" value="Pekerjaan" style="swimlane;childLayout=stackLayout;horizontal=1;startSize=30;horizontalStack=0;rounded=1;fontSize=14;fontStyle=0;strokeWidth=2;resizeParent=0;resizeLast=1;shadow=0;dashed=0;align=center;labelBackgroundColor=none;labelBorderColor=none;sketch=0;fontFamily=Tahoma;html=1;" parent="1" vertex="1">
          <mxGeometry x="290" y="410" width="270" height="110" as="geometry" />
        </mxCell>
        <mxCell id="oLxf0NyWazRHh0P2KrIF-37" value="* id_pkj -&amp;nbsp; varchar(36) - PK&lt;br&gt;* nama_pkj - varchar(64) - NOT NULL&lt;br&gt;" style="align=left;strokeColor=none;fillColor=none;spacingLeft=4;fontSize=12;verticalAlign=top;resizable=0;rotatable=0;part=1;shadow=0;labelBackgroundColor=none;labelBorderColor=none;sketch=0;fontFamily=Tahoma;html=1;" parent="oLxf0NyWazRHh0P2KrIF-36" vertex="1">
          <mxGeometry y="30" width="270" height="80" as="geometry" />
        </mxCell>
      </root>
    </mxGraphModel>
  </diagram>
</mxfile>
